<?xml version="1.0" encoding="UTF-8" standalone="no"?>
<!DOCTYPE svg PUBLIC "-//W3C//DTD SVG 1.1//EN" "http://www.w3.org/Graphics/SVG/1.1/DTD/svg11.dtd">
<svg width="100%" height="100%" viewBox="0 0 414 215" version="1.1" xmlns="http://www.w3.org/2000/svg" xmlns:xlink="http://www.w3.org/1999/xlink" xml:space="preserve" xmlns:serif="http://www.serif.com/" style="fill-rule:evenodd;clip-rule:evenodd;stroke-linejoin:round;stroke-miterlimit:2;">
    <g transform="matrix(1,0,0,1,0,-460.879028)">
        <g transform="matrix(0,-1,1,0,0,675)">
            <g id="Left-pattern" serif:id="Left pattern" transform="matrix(0,-1,1,0,0,675)">
                <path d="M675,144.061C667.162,142.399 658.963,139.934 650.329,136.535C643.742,133.941 636.467,128.924 629.733,126.009C629.328,125.833 628.922,125.653 628.514,125.467C632.761,122.157 637.788,119.923 642.886,119.923C645.947,119.923 649.033,120.728 651.991,122.591C656.345,125.333 659.82,129.277 663.694,132.62C667.161,135.61 670.843,138.215 675,139.986L675,144.061Z" style="fill:rgb(242,104,113);fill-rule:nonzero;"/>
                <path d="M675,126.871C674.852,126.771 674.704,126.67 674.557,126.567C670.451,123.683 667.081,119.835 663.233,116.63C658.848,112.978 653.949,109.755 648.236,108.714C646.528,108.402 644.824,108.253 643.133,108.253C638.697,108.253 634.345,109.278 630.195,111.078C625.484,113.122 621.161,116.131 617.501,119.749C611.106,116.168 604.626,112.332 598.51,109.684C584.696,103.704 571.291,98.27 555.26,83.895C549.263,78.517 543.144,72.978 537.272,65.491C531.652,58.324 526.585,51.349 521.32,43.552C513.326,31.714 504.685,18.405 500.517,5.883C499.844,3.863 499.216,1.903 498.654,0L675,0L675,126.871Z" style="fill:rgb(242,104,113);fill-rule:nonzero;"/>
                <path d="M600.211,144.949C598.408,144.949 596.591,144.76 594.796,144.404C582.583,141.982 574.713,132.273 564.846,125.691C561.047,123.158 556.872,121.144 552.297,121.144C551.685,121.144 551.064,121.18 550.437,121.256C544.653,121.955 539.401,125.412 534.829,128.788C530.161,132.234 526.038,136.448 520.81,139.08C515.594,141.705 509.931,143.033 504.092,143.078C503.939,143.08 503.786,143.08 503.633,143.08C498.623,143.08 493.568,142.422 488.984,140.351C484.947,138.526 481.342,135.853 477.838,133.177C471.411,128.268 463.955,120.781 456.347,119.562C453.243,119.065 451.547,115.199 452.304,112.442C453.074,109.642 455.518,108.298 458.154,108.298C458.575,108.298 459,108.332 459.424,108.4C469.346,109.989 477.564,118.651 485.285,124.392C488.824,127.024 492.9,129.99 496.561,130.842C498.717,131.343 500.998,131.599 503.289,131.599C506.642,131.599 510.017,131.051 513.055,129.92C518.114,128.037 521.982,124.195 526.168,120.941C531.238,116.998 536.544,113.439 542.652,111.304C545.823,110.196 548.908,109.699 551.908,109.699C560.906,109.699 569.132,114.172 576.536,120.053C580.95,123.558 585.047,127.413 589.982,130.202C593.016,131.916 596.683,133.474 600.274,133.474C601.824,133.474 603.359,133.183 604.823,132.49C609.529,130.259 612.523,125.118 615.924,121.39C616.435,120.831 616.96,120.283 617.501,119.749C621.23,121.838 624.931,123.839 628.514,125.467C627.175,126.511 625.914,127.661 624.752,128.882C620.78,133.058 617.618,137.792 612.831,141.146C609.055,143.792 604.674,144.949 600.211,144.949Z" style="fill:rgb(0,179,215);fill-rule:nonzero;"/>
                <path d="M675,139.986C670.843,138.215 667.161,135.61 663.694,132.62C659.82,129.277 656.345,125.333 651.991,122.591C649.033,120.728 645.947,119.923 642.886,119.923C637.788,119.923 632.761,122.157 628.514,125.467C624.931,123.839 621.23,121.838 617.501,119.749C621.161,116.131 625.484,113.122 630.195,111.078C634.345,109.278 638.697,108.253 643.133,108.253C644.824,108.253 646.528,108.402 648.236,108.714C653.949,109.755 658.848,112.978 663.233,116.63C667.081,119.835 670.451,123.683 674.557,126.567C674.704,126.67 674.852,126.771 675,126.871L675,139.986Z" style="fill:rgb(0,77,101);fill-rule:nonzero;"/>
                <path d="M609.683,214.121C607.88,214.121 606.064,213.932 604.268,213.576C592.056,211.155 584.186,201.444 574.318,194.863C570.52,192.33 566.345,190.317 561.77,190.317C561.157,190.317 560.537,190.353 559.91,190.429C554.126,191.128 548.874,194.584 544.302,197.96C539.634,201.406 535.511,205.62 530.283,208.252C525.067,210.877 519.403,212.205 513.565,212.251C513.414,212.252 513.263,212.253 513.112,212.253C508.1,212.253 503.042,211.595 498.457,209.523C494.42,207.698 490.814,205.026 487.31,202.349C480.884,197.44 473.428,189.953 465.82,188.735C462.715,188.237 461.019,184.371 461.777,181.615C462.547,178.814 464.991,177.47 467.627,177.47C468.047,177.47 468.473,177.504 468.897,177.572C478.818,179.161 487.037,187.823 494.757,193.565C498.297,196.196 502.373,199.163 506.034,200.014C508.19,200.515 510.47,200.771 512.762,200.771C516.114,200.771 519.489,200.223 522.528,199.092C527.586,197.209 531.456,193.368 535.64,190.113C540.711,186.17 546.016,182.611 552.125,180.477C555.296,179.369 558.38,178.872 561.381,178.872C570.378,178.872 578.604,183.345 586.009,189.225C590.423,192.73 594.52,196.586 599.455,199.374C602.488,201.088 606.156,202.646 609.746,202.646C611.296,202.646 612.832,202.356 614.295,201.662C619.002,199.432 621.996,194.29 625.397,190.562C629.366,186.212 634.261,182.596 639.667,180.25C643.818,178.45 648.17,177.426 652.605,177.426C654.296,177.426 656,177.575 657.709,177.886C663.421,178.928 668.321,182.151 672.706,185.803C673.487,186.453 674.248,187.131 675,187.821L675,203.318C674.381,202.822 673.771,202.313 673.167,201.792C669.293,198.45 665.818,194.505 661.464,191.764C658.506,189.901 655.42,189.095 652.358,189.095C645.655,189.095 639.071,192.96 634.225,198.054C630.253,202.231 627.091,206.965 622.303,210.318C618.528,212.964 614.147,214.121 609.683,214.121Z" style="fill:rgb(0,179,215);fill-rule:nonzero;"/>
                <path d="M348.815,192.11L343.308,192.11L343.308,119.258L317.435,184.448L312.316,182.416L338.554,116.304L288.291,166.568L284.397,162.673L332.944,114.125L270.329,142.409L268.062,137.39L333.885,107.656L261.608,107.656L261.608,102.148L333.154,102.148L268.062,72.745L270.329,67.726L333.547,96.282L284.397,47.132L288.291,43.238L338.6,93.547L312.362,27.435L317.481,25.403L343.308,90.477L343.308,23.203L348.815,23.203L348.815,90.45L374.623,25.421L379.743,27.453L353.505,93.565L403.832,43.238L407.727,47.132L358.174,96.685L421.993,67.857L424.261,72.876L359.457,102.148L430.515,102.148L430.515,107.656L358.727,107.656L424.261,137.259L421.993,142.278L358.776,113.722L407.727,162.673L403.832,166.568L353.551,116.286L379.789,182.398L374.669,184.43L348.815,119.286L348.815,192.11Z" style="fill:rgb(0,171,93);fill-rule:nonzero;"/>
            </g>
        </g>
    </g>
</svg>
